<svg xmlns="http://www.w3.org/2000/svg" viewBox="342 -112 24 24">
  <defs>
    <style>
      .cls-1 {
        fill: none;
      }

      .cls-2 {
        fill: #fff;
      }
    </style>
  </defs>
  <g id="ic_delete_forever_black_24px" transform="translate(342 -112)">
    <path id="Path_7275" data-name="Path 7275" class="cls-1" d="M0,0H24V24H0Z"/>
    <path id="Path_7276" data-name="Path 7276" class="cls-2" d="M6,19a2.006,2.006,0,0,0,2,2h8a2.006,2.006,0,0,0,2-2V7H6Zm2.46-7.12,1.41-1.41L12,12.59l2.12-2.12,1.41,1.41L13.41,14l2.12,2.12-1.41,1.41L12,15.41,9.88,17.53,8.47,16.12,10.59,14ZM15.5,4l-1-1h-5l-1,1H5V6H19V4Z"/>
    <path id="Path_7277" data-name="Path 7277" class="cls-1" d="M0,0H24V24H0Z"/>
  </g>
</svg>
