<?xml version="1.0" encoding="UTF-8"?>
<svg width="512px" height="512px" enable-background="new 0 0 489.001 489.001" version="1.1" viewBox="0 0 489 489" xml:space="preserve" xmlns="http://www.w3.org/2000/svg">
	<g fill="#22bdff">
		<path d="m2.2 168.15-2.1-151.3c-0.1-7.7 6.2-14 13.9-13.9l151.3 2.2c12.1 0.2 18.1 14.8 9.5 23.4l-42.1 42.1 70 70-65 65-70-70-42.1 42.1c-8.5 8.5-23.2 2.5-23.4-9.6z"/>
		<path d="m421.3 136.55 42.1 42.1c8.6 8.6 23.2 2.6 23.4-9.5l2.2-151.3c0.1-7.7-6.2-14-13.9-13.9l-151.3 2.2c-12.1 0.2-18.1 14.8-9.5 23.4l42 41.9-70 70 65 65 70-69.9z"/>
		<path d="m314.2 460.45c-8.6 8.6-2.6 23.2 9.5 23.4l151.3 2.2c7.7 0.1 14-6.2 13.9-13.9l-2.2-151.3c-0.2-12.1-14.8-18.1-23.4-9.5l-42.1 42.1-70-70-65 65 70 70-42 42z"/>
		<path d="m14 485.05 151.3-2.2c12.1-0.2 18.1-14.8 9.5-23.4l-42.1-42 70-70-65-65-70 70-42.1-42.1c-8.6-8.6-23.2-2.6-23.4 9.5l-2.2 151.3c0 7.7 6.3 14 14 13.9z"/>
	</g>
</svg>
