<?xml version="1.0" encoding="iso-8859-1"?>
<!-- Generator: Adobe Illustrator 19.0.0, SVG Export Plug-In . SVG Version: 6.00 Build 0)  -->
<svg xmlns="http://www.w3.org/2000/svg" xmlns:xlink="http://www.w3.org/1999/xlink" version="1.1" id="Capa_1" x="0px" y="0px" viewBox="0 0 512 512" style="enable-background:new 0 0 512 512;" xml:space="preserve" width="512px" height="512px">
<g>
	<g>
		<g>
			<path d="M256,213.333C256,192,252.875,192,245.333,192c-3.729,0-10.667,0-10.667,22.354c0,8.344,4.469,19.396,12.844,32.292     C253,229.083,256,217.833,256,213.333z" fill="#FFFFFF"/>
			<path d="M255.479,291.229c-3.177,9.604-6.74,20.271-10.698,32.146c-0.625,1.896-1.271,3.771-1.938,5.625     c13.375-4.24,27.365-7.792,40.51-10.656c-6.604-5.635-11.563-10.135-13.563-12.135     C264.677,301.094,259.906,296.104,255.479,291.229z" fill="#FFFFFF"/>
			<path d="M149.333,401.906c0.448,0.552,4.573,3.427,10.667,3.427c6.052,0,21.896-10.771,37.917-34     c-1.427,0.677-2.833,1.333-4.219,1.99C171.885,383.656,149.333,394.344,149.333,401.906z" fill="#FFFFFF"/>
			<path d="M444.862,109.779L338.221,3.138C336.29,1.201,333.621,0,330.667,0h-224C83.146,0,64,19.135,64,42.667v426.667     C64,492.865,83.146,512,106.667,512h298.667C428.854,512,448,492.865,448,469.333v-352     C448,114.379,446.799,111.71,444.862,109.779z M352,362.667c-9.552,0-29.271-13.135-47.125-26.865     c-22.281,4.156-50.51,10.792-73.219,19.75c-21.875,44.625-51.823,71.115-71.656,71.115c-15.385,0-32-9.469-32-24.76     c0-21.063,22.5-31.729,56.563-47.854c7.469-3.542,15.521-7.354,24-11.594c2.354-1.177,4.792-2.313,7.302-3.427     c3.083-6.896,6-14.354,8.688-22.406c5.583-16.781,10.552-31.667,14.781-44.573c-17.281-22.458-26-41.781-26-57.698     c0-36.104,17.406-43.688,32-43.688c19.208,0,32,7.26,32,42.667c0,8.333-4.302,23.969-14.115,54.292     c6.292,7.5,13.531,15.375,21.656,23.5c6.25,6.25,15.635,14.24,25.51,22.01c15.104-2.531,26.646-3.802,30.948-3.802     c13.854,0,42.667,0,42.667,25.219C384,347.375,378.448,362.667,352,362.667z M362.667,106.667     c-11.771,0-21.333-9.573-21.333-21.333V36.417l70.25,70.25H362.667z" fill="#FFFFFF"/>
			<path d="M341.333,330.667c-1.25,0-3.469,0.167-6.479,0.5c8.292,5.646,15.01,9.604,17.917,10.229     c9.896-0.063,9.896-2.052,9.896-6.844C361.563,332.208,357.094,330.667,341.333,330.667z" fill="#FFFFFF"/>
		</g>
	</g>
</g>
<g>
</g>
<g>
</g>
<g>
</g>
<g>
</g>
<g>
</g>
<g>
</g>
<g>
</g>
<g>
</g>
<g>
</g>
<g>
</g>
<g>
</g>
<g>
</g>
<g>
</g>
<g>
</g>
<g>
</g>
</svg>
