<svg xmlns="http://www.w3.org/2000/svg" viewBox="384 -77 24.369 22.5">
  <defs>
    <style>
      .cls-1 {
        fill: none;
        stroke: #202529;
        opacity: 0.34;
      }
    </style>
  </defs>
  <g id="Group_2" data-name="Group 2" transform="translate(3001 1621)">
    <path id="Exclusion_10" data-name="Exclusion 10" class="cls-1" d="M11.684,21.5C5.242,21.5,0,16.678,0,10.75S5.242,0,11.684,0,23.369,4.823,23.369,10.75,18.127,21.5,11.684,21.5Zm6.9-12.475A2.058,2.058,0,0,0,16.457,11,2.129,2.129,0,0,0,20.7,11,2.058,2.058,0,0,0,18.581,9.025Zm-6.372,0A2.058,2.058,0,0,0,10.085,11a2.058,2.058,0,0,0,2.124,1.98A2.058,2.058,0,0,0,14.333,11,2.058,2.058,0,0,0,12.209,9.025Zm-6.372,0A2.057,2.057,0,0,0,3.713,11a2.057,2.057,0,0,0,2.123,1.98A2.059,2.059,0,0,0,7.962,11,2.058,2.058,0,0,0,5.837,9.025Z" transform="translate(-2616.5 -1697.5)"/>
  </g>
</svg>
