<svg xmlns="http://www.w3.org/2000/svg" viewBox="259 121.8 23 17.2">
  <defs>
    <style>
      .cls-1 {
        fill: #969696;
      }
    </style>
  </defs>
  <path id="ic_add_a_photo_24px" class="cls-1" d="M3,3.457V1H5V3.457H8V5.1H5V7.552H3V5.1H0V3.457ZM6,8.371V5.914H9V3.457h7L17.83,5.1H21a1.852,1.852,0,0,1,2,1.638v9.829A1.852,1.852,0,0,1,21,18.2H5a1.852,1.852,0,0,1-2-1.638V8.371Zm7,7.371c2.76,0,5-1.835,5-4.1s-2.24-4.1-5-4.1-5,1.835-5,4.1S10.24,15.743,13,15.743Zm-3.2-4.1A2.951,2.951,0,0,0,13,14.269a2.951,2.951,0,0,0,3.2-2.621A2.951,2.951,0,0,0,13,9.027a2.951,2.951,0,0,0-3.2,2.621Z" transform="translate(259 120.8)"/>
</svg>
