<svg xmlns="http://www.w3.org/2000/svg" viewBox="354.84 449 16.326 18">
  <defs>
    <style>
      .cls-1 {
        fill: #5abbff;
      }
    </style>
  </defs>
  <path id="ic_phone_in_talk_24px" class="cls-1" d="M3.907,15.5a9.433,9.433,0,0,0,3.238-.57.865.865,0,0,1,.925.24l2,2.2a14.424,14.424,0,0,0,5.977-6.59l-2-2.21a1.029,1.029,0,0,1-.227-1A12.428,12.428,0,0,0,14.337,4a.96.96,0,0,1,.907-1h3.174a.96.96,0,0,1,.907,1c0,9.39-6.9,17-15.419,17A.96.96,0,0,1,3,20V16.5A.96.96,0,0,1,3.907,15.5ZM4.814,12H3c0-4.97,3.655-9,8.163-9V5C7.653,5,4.814,8.13,4.814,12Zm3.628,0H6.628a4.786,4.786,0,0,1,4.535-5V9A2.867,2.867,0,0,0,8.442,12Z" transform="translate(351.84 446)"/>
</svg>
