<svg xmlns="http://www.w3.org/2000/svg" viewBox="386 27 24 24">
  <defs>
    <style>
      .cls-1 {
        fill: none;
      }

      .cls-2 {
        fill: #969696;
      }
    </style>
  </defs>
  <g id="ic_visibility_black_24px" transform="translate(386 27)">
    <path id="Path_7261" data-name="Path 7261" class="cls-1" d="M0,0H24V24H0Z"/>
    <path id="Path_7262" data-name="Path 7262" class="cls-2" d="M12,4.5A11.827,11.827,0,0,0,1,12a11.817,11.817,0,0,0,22,0A11.827,11.827,0,0,0,12,4.5ZM12,17a5,5,0,1,1,5-5A5,5,0,0,1,12,17Zm0-8a3,3,0,1,0,3,3A3,3,0,0,0,12,9Z"/>
  </g>
</svg>
