<svg xmlns="http://www.w3.org/2000/svg" viewBox="1649 -1982.6 18.943 20.399">
  <defs>
    <style>
      .cls-1 {
        fill: #5abbff;
      }
    </style>
  </defs>
  <path id="ic_lock_outline_24px" class="cls-1" d="M13.471,16.542A2.194,2.194,0,0,0,15.839,14.6a2.194,2.194,0,0,0-2.368-1.943A2.194,2.194,0,0,0,11.1,14.6,2.194,2.194,0,0,0,13.471,16.542Zm7.1-8.743H19.391V5.857C19.391,3.176,16.739,1,13.471,1s-5.92,2.176-5.92,4.857V7.8H6.368A2.194,2.194,0,0,0,4,9.743v9.714A2.194,2.194,0,0,0,6.368,21.4H20.575a2.194,2.194,0,0,0,2.368-1.943V9.743A2.194,2.194,0,0,0,20.575,7.8ZM9.8,5.857c0-1.661,1.646-3.011,3.67-3.011s3.67,1.35,3.67,3.011V7.8H9.8Zm10.774,13.6H6.368V9.743H20.575Z" transform="translate(1645 -1983.6)"/>
</svg>
