<svg xmlns="http://www.w3.org/2000/svg" viewBox="1579 -1982 18.94 20.4">
  <defs>
    <style>
      .cls-1 {
        fill: #5abbff;
      }
    </style>
  </defs>
  <path id="ic_lock_open_24px" class="cls-1" d="M13.47,16.543A2.193,2.193,0,0,0,15.838,14.6a2.193,2.193,0,0,0-2.368-1.943A2.193,2.193,0,0,0,11.1,14.6,2.193,2.193,0,0,0,13.47,16.543Zm7.1-8.743H19.389V5.857C19.389,3.176,16.737,1,13.47,1S7.551,3.176,7.551,5.857H9.8c0-1.661,1.645-3.011,3.67-3.011s3.67,1.35,3.67,3.011V7.8H6.367A2.193,2.193,0,0,0,4,9.743v9.714A2.193,2.193,0,0,0,6.367,21.4H20.573a2.193,2.193,0,0,0,2.368-1.943V9.743A2.193,2.193,0,0,0,20.573,7.8Zm0,11.657H6.367V9.743H20.573Z" transform="translate(1575 -1983)"/>
</svg>
