<?xml version="1.0" encoding="utf-8"?>
<!-- Svg Vector Icons : http://www.onlinewebfonts.com/icon -->
<!DOCTYPE svg PUBLIC "-//W3C//DTD SVG 1.1//EN" "http://www.w3.org/Graphics/SVG/1.1/DTD/svg11.dtd">
<svg version="1.1" xmlns="http://www.w3.org/2000/svg" xmlns:xlink="http://www.w3.org/1999/xlink" x="0px" y="0px" viewBox="0 0 1000 1000" enable-background="new 0 0 1000 1000" xml:space="preserve">
<metadata> Svg Vector Icons : http://www.onlinewebfonts.com/icon </metadata>
<g><path fill="#fff" d="M464.1,161.2H180.6c-39.6,0-75-2.8-75,37.3v567.6c0,40.1,32.1,72.6,71.7,72.6H751c39.6,0,71.7-32.5,71.7-72.6V621h95.6v242c0,40.1-32.1,72.6-71.7,72.6H81.7C42.1,935.6,10,903.1,10,863V137c0-40.1,32.1-72.6,71.7-72.6h382.4V161.2z"/><path fill="#fff" d="M193.2,635.4c0,0,28.8-384.2,489.6-380.9V64.4L990,350.9L682.8,637.4V448.7C682.8,448.7,391.6,398.8,193.2,635.4z"/></g>
</svg>